<svg width="422" height="422" viewBox="0 0 422 422" fill="none" xmlns="http://www.w3.org/2000/svg">
<path d="M178.031 72.5312H191.219V85.7188H178.031V72.5312Z" fill="#FF8080"/>
<path d="M349.469 230.781H362.656V243.969H349.469V230.781Z" fill="#FF8080"/>
<path d="M230.781 336.281H243.969V349.469H230.781V336.281Z" fill="#FF8080"/>
<path d="M178.031 356.062H191.219V369.25H178.031V356.062Z" fill="#FF8080"/>
<path d="M72.5312 204.406H85.7188V217.594H72.5312V204.406Z" fill="#FF8080"/>
<path d="M230.781 72.5312H243.969V85.7188H230.781V72.5312Z" fill="#FF8080"/>
<path d="M336.281 178.031H349.469V191.219H336.281V178.031Z" fill="#FF8080"/>
<path d="M303.312 112.094H316.5V125.281H303.312V112.094Z" fill="#FF8080"/>
<path d="M105.5 112.094H118.688V125.281H105.5V112.094Z" fill="#FF8080"/>
<path d="M303.312 296.719H316.5V309.906H303.312V296.719Z" fill="#FF8080"/>
<path d="M105.5 296.719H118.688V309.906H105.5V296.719Z" fill="#FF8080"/>
<path d="M210.222 204.406C205.61 204.555 201.197 206.314 197.747 209.379C194.298 212.443 192.031 216.619 191.34 221.181C190.649 225.742 191.577 230.402 193.964 234.351C196.351 238.299 200.046 241.287 204.406 242.795V257.156H217.594V242.749C222.061 241.184 225.817 238.066 228.177 233.963C230.538 229.86 231.344 225.045 230.451 220.397C229.557 215.749 227.022 211.576 223.309 208.641C219.596 205.706 214.951 204.203 210.222 204.406ZM217.594 223.93C217.628 224.796 217.492 225.66 217.192 226.472C216.893 227.285 216.436 228.031 215.848 228.667C215.26 229.304 214.553 229.818 213.766 230.18C212.98 230.543 212.129 230.747 211.264 230.781C210.397 230.815 209.532 230.678 208.719 230.377C207.905 230.076 207.159 229.617 206.523 229.027C205.564 228.142 204.89 226.993 204.585 225.725C204.28 224.457 204.357 223.126 204.808 221.902C205.26 220.678 206.063 219.616 207.119 218.849C208.174 218.082 209.433 217.645 210.736 217.594H211C212.704 217.592 214.342 218.251 215.572 219.431C216.801 220.611 217.526 222.221 217.594 223.924V223.93Z" fill="#FF8080"/>
<path d="M243.969 185.838V178.031C243.969 169.287 240.495 160.902 234.312 154.719C228.13 148.536 219.744 145.063 211 145.063C202.256 145.063 193.87 148.536 187.688 154.719C181.505 160.902 178.031 169.287 178.031 178.031V185.838C174.188 187.197 170.858 189.71 168.497 193.034C166.137 196.358 164.861 200.33 164.844 204.406V257.156C164.844 262.403 166.928 267.434 170.638 271.144C174.347 274.853 179.379 276.938 184.625 276.938H237.375C242.621 276.938 247.653 274.853 251.362 271.144C255.072 267.434 257.156 262.403 257.156 257.156V204.406C257.139 200.33 255.863 196.358 253.503 193.034C251.142 189.71 247.812 187.197 243.969 185.838ZM191.219 178.031C191.219 172.785 193.303 167.754 197.013 164.044C200.722 160.334 205.754 158.25 211 158.25C216.246 158.25 221.278 160.334 224.987 164.044C228.697 167.754 230.781 172.785 230.781 178.031V184.625H191.219V178.031ZM243.969 257.156C243.969 258.905 243.274 260.582 242.037 261.819C240.801 263.055 239.124 263.75 237.375 263.75H184.625C182.876 263.75 181.199 263.055 179.963 261.819C178.726 260.582 178.031 258.905 178.031 257.156V204.406C178.031 202.657 178.726 200.98 179.963 199.744C181.199 198.507 182.876 197.813 184.625 197.813H237.375C239.124 197.813 240.801 198.507 242.037 199.744C243.274 200.98 243.969 202.657 243.969 204.406V257.156Z" fill="#FF8080"/>
<path d="M389.031 270.344C386.094 270.355 383.197 271.031 380.558 272.322L365.393 257.156H303.312V243.969H336.281V230.781H303.312V217.594H337.837L375.336 198.841C378.623 201.989 382.896 203.905 387.432 204.264C391.969 204.624 396.49 203.405 400.232 200.814C403.973 198.223 406.704 194.419 407.963 190.045C409.222 185.672 408.931 180.998 407.14 176.815C405.349 172.631 402.168 169.195 398.134 167.087C394.101 164.98 389.463 164.33 385.006 165.249C380.549 166.168 376.546 168.598 373.675 172.129C370.804 175.66 369.241 180.074 369.25 184.625C369.281 185.427 369.362 186.227 369.494 187.019L334.725 204.406H303.312V191.219H323.094V178.031H303.312V164.844H332.417L354.177 143.084C356.817 144.376 359.717 145.052 362.656 145.062C366.569 145.062 370.393 143.902 373.646 141.729C376.899 139.555 379.435 136.466 380.932 132.851C382.429 129.237 382.821 125.259 382.057 121.422C381.294 117.585 379.41 114.06 376.644 111.294C373.877 108.527 370.353 106.643 366.515 105.88C362.678 105.117 358.701 105.509 355.086 107.006C351.472 108.503 348.382 111.038 346.209 114.291C344.035 117.544 342.875 121.369 342.875 125.281C342.886 128.219 343.563 131.115 344.853 133.754L326.958 151.656H303.312C303.302 142.916 299.825 134.536 293.645 128.355C287.464 122.175 279.084 118.698 270.344 118.688V101.636L308.027 63.9594C310.666 65.2498 313.563 65.9261 316.5 65.9375C320.412 65.9375 324.237 64.7773 327.49 62.6038C330.743 60.4302 333.278 57.3408 334.775 53.7262C336.273 50.1117 336.664 46.1343 335.901 42.2971C335.138 38.4599 333.254 34.9353 330.487 32.1688C327.721 29.4023 324.196 27.5184 320.359 26.7551C316.522 25.9918 312.545 26.3836 308.93 27.8808C305.315 29.378 302.226 31.9134 300.052 35.1664C297.879 38.4194 296.719 42.2439 296.719 46.1562C296.73 49.0937 297.406 51.9904 298.697 54.6292L257.156 96.1698V118.688H243.969V98.9062H230.781V118.688H217.594V71.318C221.993 69.7626 225.701 66.7019 228.062 62.677C230.423 58.6521 231.285 53.9221 230.496 49.323C229.707 44.7239 227.318 40.5518 223.75 37.5441C220.182 34.5364 215.666 32.8868 211 32.8868C206.334 32.8868 201.818 34.5364 198.25 37.5441C194.682 40.5518 192.293 44.7239 191.504 49.323C190.715 53.9221 191.577 58.6521 193.938 62.677C196.299 66.7019 200.007 69.7626 204.406 71.318V118.688H191.219V98.9062H178.031V118.688H164.844V69.8014L136.491 41.4483C137.782 38.8075 138.458 35.9084 138.469 32.9688C138.469 29.0564 137.309 25.2319 135.135 21.9789C132.961 18.7259 129.872 16.1905 126.257 14.6933C122.643 13.1961 118.666 12.8043 114.828 13.5676C110.991 14.3309 107.466 16.2148 104.7 18.9813C101.934 21.7478 100.05 25.2724 99.2863 29.1096C98.5231 32.9468 98.9148 36.9242 100.412 40.5387C101.909 44.1533 104.445 47.2427 107.698 49.4163C110.951 51.5898 114.775 52.75 118.688 52.75C121.625 52.7386 124.522 52.0623 127.16 50.7719L151.656 75.2611V118.688C142.916 118.698 134.536 122.175 128.355 128.355C122.175 134.536 118.698 142.916 118.688 151.656H95.0423L77.1469 133.754C78.4373 131.115 79.1136 128.219 79.125 125.281C79.125 121.369 77.9648 117.544 75.7913 114.291C73.6177 111.038 70.5283 108.503 66.9137 107.006C63.2992 105.509 59.3218 105.117 55.4846 105.88C51.6474 106.643 48.1228 108.527 45.3563 111.294C42.5898 114.06 40.7059 117.585 39.9426 121.422C39.1793 125.259 39.5711 129.237 41.0683 132.851C42.5655 136.466 45.1009 139.555 48.3539 141.729C51.6069 143.902 55.4314 145.062 59.3438 145.062C62.2812 145.051 65.1779 144.375 67.8167 143.084L89.5761 164.844H118.688V178.031H76.7381L42.2 206.806C39.3695 205.253 36.1972 204.429 32.9688 204.406C29.0564 204.406 25.2319 205.566 21.9789 207.74C18.7259 209.914 16.1905 213.003 14.6933 216.618C13.1961 220.232 12.8043 224.209 13.5676 228.047C14.3309 231.884 16.2148 235.408 18.9813 238.175C21.7478 240.941 25.2724 242.825 29.1096 243.589C32.9468 244.352 36.9242 243.96 40.5387 242.463C44.1533 240.966 47.2427 238.43 49.4163 235.177C51.5899 231.924 52.75 228.1 52.75 224.187C52.7544 221.541 52.2229 218.921 51.1873 216.486L81.5119 191.219H118.688V204.406H98.9062V217.594H118.688V230.781H59.3438V243.969H118.688V257.156H82.1911L55.6183 297.009C54.6706 296.842 53.7119 296.745 52.75 296.719C48.1627 296.677 43.7009 298.215 40.1149 301.076C36.5289 303.937 34.0375 307.946 33.0597 312.428C32.0819 316.91 32.6774 321.592 34.746 325.687C36.8146 329.781 40.2301 333.039 44.4181 334.911C48.6061 336.783 53.3111 337.156 57.7418 335.967C62.1725 334.778 66.0585 332.1 68.7464 328.382C71.4343 324.665 72.7601 320.135 72.5007 315.555C72.2413 310.975 70.4126 306.624 67.3222 303.233L89.2464 270.344H118.688C118.698 279.084 122.175 287.464 128.355 293.645C134.536 299.825 142.916 303.302 151.656 303.312V346.739L127.16 371.228C124.522 369.938 121.625 369.261 118.688 369.25C114.775 369.25 110.951 370.41 107.698 372.584C104.445 374.757 101.909 377.847 100.412 381.461C98.9148 385.076 98.5231 389.053 99.2863 392.89C100.05 396.728 101.934 400.252 104.7 403.019C107.466 405.785 110.991 407.669 114.828 408.432C118.666 409.196 122.643 408.804 126.257 407.307C129.872 405.81 132.961 403.274 135.135 400.021C137.309 396.768 138.469 392.944 138.469 389.031C138.457 386.094 137.781 383.197 136.491 380.558L164.844 352.205V303.312H178.031V342.875H191.219V303.312H204.406V359.715L244.457 384.772C243.38 389.391 243.975 394.243 246.135 398.466C248.295 402.689 251.881 406.011 256.256 407.842C260.632 409.673 265.515 409.895 270.039 408.469C274.563 407.043 278.435 404.061 280.97 400.051C283.505 396.042 284.537 391.264 283.885 386.566C283.233 381.868 280.938 377.552 277.407 374.385C273.876 371.218 269.337 369.403 264.596 369.264C259.854 369.124 255.217 370.668 251.505 373.622L217.594 352.41V303.312H230.781V323.094H243.969V303.312H257.156V356.062H304.526C306.081 360.462 309.142 364.17 313.167 366.531C317.192 368.892 321.922 369.754 326.521 368.965C331.12 368.176 335.292 365.786 338.3 362.219C341.307 358.651 342.957 354.135 342.957 349.469C342.957 344.802 341.307 340.286 338.3 336.719C335.292 333.151 331.12 330.761 326.521 329.972C321.922 329.183 317.192 330.045 313.167 332.407C309.142 334.768 306.081 338.476 304.526 342.875H270.344V303.312C279.084 303.302 287.464 299.825 293.645 293.645C299.825 287.464 303.302 279.084 303.312 270.344H359.926L371.228 281.652C369.938 284.291 369.261 287.188 369.25 290.125C369.25 294.037 370.41 297.862 372.584 301.115C374.757 304.368 377.847 306.903 381.461 308.4C385.076 309.898 389.053 310.289 392.89 309.526C396.728 308.763 400.252 306.879 403.019 304.112C405.785 301.346 407.669 297.821 408.432 293.984C409.196 290.147 408.804 286.17 407.307 282.555C405.81 278.94 403.274 275.851 400.021 273.677C396.768 271.504 392.944 270.344 389.031 270.344ZM389.031 178.031C390.335 178.031 391.61 178.418 392.695 179.142C393.779 179.867 394.624 180.897 395.123 182.102C395.622 183.307 395.753 184.632 395.498 185.911C395.244 187.19 394.616 188.365 393.694 189.287C392.772 190.21 391.597 190.838 390.318 191.092C389.039 191.346 387.713 191.216 386.508 190.717C385.303 190.218 384.273 189.373 383.549 188.288C382.824 187.204 382.437 185.929 382.437 184.625C382.437 182.876 383.132 181.199 384.369 179.963C385.605 178.726 387.282 178.031 389.031 178.031ZM362.656 118.688C363.96 118.688 365.235 119.074 366.32 119.799C367.404 120.523 368.249 121.553 368.748 122.758C369.247 123.963 369.378 125.289 369.123 126.568C368.869 127.847 368.241 129.022 367.319 129.944C366.397 130.866 365.222 131.494 363.943 131.748C362.664 132.003 361.338 131.872 360.133 131.373C358.928 130.874 357.898 130.029 357.174 128.945C356.449 127.86 356.062 126.585 356.062 125.281C356.062 123.532 356.757 121.855 357.994 120.619C359.23 119.382 360.907 118.688 362.656 118.688ZM316.5 39.5625C317.804 39.5625 319.079 39.9492 320.163 40.6737C321.248 41.3983 322.093 42.4281 322.592 43.6329C323.091 44.8378 323.221 46.1636 322.967 47.4426C322.713 48.7217 322.085 49.8966 321.162 50.8187C320.24 51.7409 319.065 52.3689 317.786 52.6233C316.507 52.8777 315.182 52.7471 313.977 52.2481C312.772 51.749 311.742 50.9039 311.017 49.8195C310.293 48.7352 309.906 47.4604 309.906 46.1562C309.906 44.4075 310.601 42.7303 311.838 41.4938C313.074 40.2572 314.751 39.5625 316.5 39.5625ZM211 46.1562C212.304 46.1562 213.579 46.543 214.663 47.2675C215.748 47.992 216.593 49.0218 217.092 50.2267C217.591 51.4315 217.721 52.7573 217.467 54.0364C217.213 55.3154 216.585 56.4903 215.662 57.4125C214.74 58.3346 213.565 58.9626 212.286 59.2171C211.007 59.4715 209.682 59.3409 208.477 58.8418C207.272 58.3428 206.242 57.4976 205.517 56.4133C204.793 55.329 204.406 54.0541 204.406 52.75C204.406 51.0012 205.101 49.3241 206.338 48.0875C207.574 46.8509 209.251 46.1562 211 46.1562ZM112.094 32.9688C112.094 31.6646 112.48 30.3898 113.205 29.3055C113.93 28.2211 114.959 27.376 116.164 26.8769C117.369 26.3779 118.695 26.2473 119.974 26.5017C121.253 26.7561 122.428 27.3841 123.35 28.3063C124.272 29.2284 124.9 30.4033 125.155 31.6824C125.409 32.9614 125.278 34.2872 124.779 35.4921C124.28 36.6969 123.435 37.7267 122.351 38.4513C121.266 39.1758 119.992 39.5625 118.688 39.5625C116.939 39.5625 115.262 38.8678 114.025 37.6312C112.788 36.3947 112.094 34.7175 112.094 32.9688ZM52.75 125.281C52.75 123.977 53.1367 122.702 53.8612 121.618C54.5858 120.534 55.6156 119.688 56.8204 119.189C58.0253 118.69 59.3511 118.56 60.6301 118.814C61.9092 119.069 63.0841 119.697 64.0062 120.619C64.9284 121.541 65.5564 122.716 65.8108 123.995C66.0652 125.274 65.9346 126.6 65.4356 127.805C64.9365 129.009 64.0914 130.039 63.007 130.764C61.9227 131.488 60.6479 131.875 59.3438 131.875C57.595 131.875 55.9178 131.18 54.6813 129.944C53.4447 128.707 52.75 127.03 52.75 125.281ZM32.9688 230.781C31.6646 230.781 30.3898 230.395 29.3055 229.67C28.2211 228.945 27.376 227.916 26.8769 226.711C26.3779 225.506 26.2473 224.18 26.5017 222.901C26.7561 221.622 27.3841 220.447 28.3063 219.525C29.2284 218.603 30.4033 217.975 31.6824 217.72C32.9614 217.466 34.2872 217.597 35.4921 218.096C36.6969 218.595 37.7267 219.44 38.4513 220.524C39.1758 221.609 39.5625 222.883 39.5625 224.187C39.5625 225.936 38.8678 227.613 37.6312 228.85C36.3947 230.087 34.7175 230.781 32.9688 230.781ZM52.75 323.094C51.4459 323.094 50.171 322.707 49.0867 321.982C48.0024 321.258 47.1572 320.228 46.6582 319.023C46.1591 317.818 46.0285 316.493 46.2829 315.214C46.5374 313.935 47.1654 312.76 48.0875 311.837C49.0097 310.915 50.1846 310.287 51.4636 310.033C52.7427 309.778 54.0685 309.909 55.2733 310.408C56.4782 310.907 57.508 311.752 58.2325 312.837C58.957 313.921 59.3438 315.196 59.3438 316.5C59.3438 318.249 58.6491 319.926 57.4125 321.162C56.1759 322.399 54.4988 323.094 52.75 323.094ZM118.688 395.625C117.383 395.625 116.109 395.238 115.024 394.514C113.94 393.789 113.095 392.759 112.596 391.555C112.097 390.35 111.966 389.024 112.22 387.745C112.475 386.466 113.103 385.291 114.025 384.369C114.947 383.447 116.122 382.819 117.401 382.564C118.68 382.31 120.006 382.44 121.211 382.939C122.416 383.438 123.445 384.284 124.17 385.368C124.895 386.452 125.281 387.727 125.281 389.031C125.281 390.78 124.587 392.457 123.35 393.694C122.113 394.93 120.436 395.625 118.688 395.625ZM263.75 382.437C265.054 382.437 266.329 382.824 267.413 383.549C268.498 384.273 269.343 385.303 269.842 386.508C270.341 387.713 270.471 389.039 270.217 390.318C269.963 391.597 269.335 392.772 268.412 393.694C267.49 394.616 266.315 395.244 265.036 395.498C263.757 395.753 262.432 395.622 261.227 395.123C260.022 394.624 258.992 393.779 258.267 392.694C257.543 391.61 257.156 390.335 257.156 389.031C257.156 387.282 257.851 385.605 259.088 384.369C260.324 383.132 262.001 382.437 263.75 382.437ZM323.094 342.875C324.398 342.875 325.673 343.262 326.757 343.986C327.841 344.711 328.686 345.741 329.186 346.945C329.685 348.15 329.815 349.476 329.561 350.755C329.306 352.034 328.678 353.209 327.756 354.131C326.834 355.053 325.659 355.681 324.38 355.936C323.101 356.19 321.775 356.06 320.57 355.561C319.366 355.061 318.336 354.216 317.611 353.132C316.887 352.048 316.5 350.773 316.5 349.469C316.5 347.72 317.195 346.043 318.431 344.806C319.668 343.57 321.345 342.875 323.094 342.875ZM290.125 270.344C290.125 275.59 288.041 280.621 284.331 284.331C280.621 288.041 275.59 290.125 270.344 290.125H151.656C146.41 290.125 141.379 288.041 137.669 284.331C133.959 280.621 131.875 275.59 131.875 270.344V151.656C131.875 146.41 133.959 141.378 137.669 137.669C141.379 133.959 146.41 131.875 151.656 131.875H270.344C275.59 131.875 280.621 133.959 284.331 137.669C288.041 141.378 290.125 146.41 290.125 151.656V270.344ZM389.031 296.719C387.727 296.719 386.452 296.332 385.368 295.607C384.284 294.883 383.438 293.853 382.939 292.648C382.44 291.443 382.31 290.118 382.564 288.839C382.819 287.56 383.447 286.385 384.369 285.462C385.291 284.54 386.466 283.912 387.745 283.658C389.024 283.403 390.35 283.534 391.555 284.033C392.759 284.532 393.789 285.377 394.514 286.462C395.238 287.546 395.625 288.821 395.625 290.125C395.625 291.874 394.93 293.551 393.694 294.787C392.457 296.024 390.78 296.719 389.031 296.719Z" fill="#FF8080"/>
</svg>
