<svg width="39" height="39" viewBox="0 0 39 39" fill="none" xmlns="http://www.w3.org/2000/svg">
<circle cx="19.5" cy="19.5" r="19.5" fill="#FF8080"/>
<path d="M17.4075 15.0373C15.0509 17.4755 15.5652 21.5218 18.2646 23.3143C18.3536 23.3734 18.4719 23.3617 18.5483 23.2871C19.1166 22.7318 19.5974 22.1939 20.0183 21.5098C20.0827 21.4052 20.0427 21.2694 19.9346 21.2108C19.5229 20.9878 19.1132 20.5695 18.8825 20.1277L18.8822 20.1278C18.6059 19.5777 18.5119 18.9609 18.6581 18.324C18.6583 18.324 18.6585 18.3241 18.6586 18.3241C18.8269 17.5086 19.7024 16.7501 20.371 16.0486C20.3696 16.0481 20.3682 16.0476 20.3668 16.0471L22.8719 13.4903C23.8703 12.4714 25.5124 12.4629 26.5211 13.4716C27.54 14.4699 27.5569 16.1204 26.5586 17.1393L25.0412 18.6996C24.9709 18.7719 24.9481 18.8772 24.981 18.9725C25.3304 19.9856 25.4163 21.4142 25.1822 22.4935C25.1756 22.5237 25.2129 22.5435 25.2345 22.5214L28.464 19.2252C30.5271 17.1196 30.5096 13.6914 28.4251 11.6069C26.2979 9.47966 22.8348 9.49737 20.7294 11.6462L17.4204 15.0234C17.4161 15.028 17.4119 15.0327 17.4075 15.0373Z" fill="white"/>
<path d="M23.445 23.7787C23.445 23.7788 23.4449 23.7789 23.4448 23.779C23.4469 23.7782 23.4488 23.7774 23.4509 23.7765C24.11 22.5713 24.2397 21.1891 23.9308 19.8416L23.9294 19.8431L23.9279 19.8424C23.6346 18.6423 22.8298 17.4506 21.7369 16.7169C21.6428 16.6537 21.4926 16.6611 21.4046 16.7323C20.851 17.1799 20.309 17.754 19.9515 18.4865C19.8953 18.6015 19.9373 18.7397 20.048 18.8039C20.463 19.0449 20.8378 19.3976 21.0887 19.8659L21.0891 19.8656C21.2847 20.1964 21.4774 20.8241 21.3525 21.4986C21.3525 21.4986 21.3524 21.4986 21.3523 21.4986C21.2358 22.3928 20.3328 23.213 19.615 23.952L19.6154 23.9524C19.0689 24.5112 17.6799 25.9272 17.1237 26.4954C16.1254 27.5143 14.475 27.5311 13.4561 26.5328C12.4372 25.5346 12.4204 23.8841 13.4187 22.8652L14.9406 21.3002C15.0096 21.2292 15.033 21.1261 15.0023 21.0321C14.6644 19.9952 14.5718 18.5989 14.7851 17.5208C14.7911 17.4907 14.7541 17.4715 14.7326 17.4934L11.5517 20.74C9.4675 22.8672 9.48517 26.3306 11.591 28.4365C13.7182 30.5206 17.1637 30.4854 19.2479 28.3583C19.9719 27.5484 23.0712 24.6788 23.445 23.7787Z" fill="white"/>
</svg>
